<svg width="48" height="48" viewBox="0 0 48 48" fill="none" xmlns="http://www.w3.org/2000/svg">
<rect x="2" y="2" width="44" height="44" rx="10" stroke="#E8F0FF" stroke-width="4"/>
<g clip-path="url(#clip0_4230_10724)">
<rect width="48" height="48" rx="12" fill="#1B68FA"/>
<rect width="48" height="48" fill="url(#paint0_linear_4230_10724)"/>
</g>
<path d="M28.8509 29.879C28.6066 29.5794 28.1987 29.4662 27.8368 29.6017C26.2222 30.2052 24.3604 30.1106 22.7539 29.1834C21.372 28.3853 20.3835 27.0973 19.9704 25.5558C19.5666 24.0485 19.7603 22.4754 20.5153 21.1143C20.5264 21.0942 20.5387 21.0742 20.5509 21.0549C22.6437 17.8234 25.573 17.5773 27.7956 18.4448C28.1609 18.5873 28.5762 18.4767 28.8242 18.1727L32.4261 13.7553C32.7824 13.318 32.6573 12.6648 32.164 12.3916C31.8753 12.2316 31.5297 12.0545 31.1351 11.8779C28.5424 10.7046 25.691 10.3675 22.9729 10.9317C21.2506 11.2895 19.639 11.9952 18.1832 13.0296C16.6706 14.1042 15.3567 15.515 14.278 17.2228L14.239 17.2845L14.2027 17.3476C13.304 18.9039 12.7369 20.5917 12.5171 22.364C12.3048 24.0741 12.424 25.7878 12.8716 27.4577C13.3189 29.1277 14.0727 30.6714 15.1113 32.0463C16.1881 33.4712 17.5232 34.6493 19.0796 35.5476C20.6359 36.4462 22.3237 37.0134 24.0961 37.2331C24.6443 37.3014 25.1929 37.3352 25.7404 37.3352C26.9003 37.3352 28.0551 37.1826 29.1898 36.8787C30.2476 36.5954 31.255 36.189 32.2008 35.6653C32.6922 35.3928 32.814 34.7392 32.4587 34.3038L28.8509 29.879Z" fill="url(#paint1_linear_4230_10724)"/>
<defs>
<linearGradient id="paint0_linear_4230_10724" x1="48" y1="0" x2="0" y2="48" gradientUnits="userSpaceOnUse">
<stop stop-color="#1B68FA"/>
<stop offset="1" stop-color="#5E00F6"/>
</linearGradient>
<linearGradient id="paint1_linear_4230_10724" x1="13.4466" y1="37.0535" x2="53.8595" y2="-7.34404" gradientUnits="userSpaceOnUse">
<stop stop-color="#76A4FC"/>
<stop offset="0.47" stop-color="#D9E6FF"/>
<stop offset="1" stop-color="white"/>
</linearGradient>
<clipPath id="clip0_4230_10724">
<rect width="48" height="48" rx="12" fill="white"/>
</clipPath>
</defs>
</svg>
