<svg width="49" height="48" viewBox="0 0 49 48" fill="none" xmlns="http://www.w3.org/2000/svg">
<rect x="2.33301" y="2" width="44" height="44" rx="10" stroke="#E8F0FF" stroke-width="4"/>
<g clip-path="url(#clip0_4230_10805)">
<rect x="0.333008" width="48" height="48" rx="12" fill="#1B68FA"/>
<rect width="48" height="48" transform="translate(0.333008)" fill="url(#paint0_linear_4230_10805)"/>
</g>
<path d="M35.165 25.064C34.9911 26.9068 34.4275 28.7448 33.4898 30.5276L33.456 30.5917L33.4201 30.6544C32.5239 32.2065 31.3488 33.538 29.9276 34.6118C28.556 35.6478 27.0165 36.3994 25.3509 36.8459C24.22 37.1492 23.0687 37.3012 21.9119 37.3012V37.2845H16.9944C16.5054 37.2845 16.1094 36.8881 16.1094 36.3994V30.8524C16.1094 30.3633 16.5057 29.9673 16.9944 29.9673H21.9489C23.9612 29.9518 25.9156 28.918 27.0199 27.0789C27.0314 27.0596 27.0421 27.04 27.0525 27.0203C29.0514 23.1122 27.1333 20.2041 24.8663 18.8952C24.0224 18.4076 23.0105 18.0732 21.9493 18.0357H16.9944C16.5054 18.0357 16.1094 17.6393 16.1094 17.1506V11.584C16.1094 11.0953 16.5057 10.6989 16.9944 10.6989H21.9489V10.7026C24.2159 10.736 26.4818 11.363 28.5316 12.5465C31.4285 14.2199 33.5799 16.8247 34.5888 19.8819C35.1383 21.5474 35.3322 23.2913 35.165 25.064Z" fill="url(#paint1_linear_4230_10805)"/>
<defs>
<linearGradient id="paint0_linear_4230_10805" x1="1.5" y1="48" x2="47.5" y2="1" gradientUnits="userSpaceOnUse">
<stop stop-color="#761EC2"/>
<stop offset="1" stop-color="#A95D4C"/>
</linearGradient>
<linearGradient id="paint1_linear_4230_10805" x1="13.8057" y1="34.0523" x2="46.7915" y2="-4.86055" gradientUnits="userSpaceOnUse">
<stop stop-color="#FFC6FD"/>
<stop offset="0.389828" stop-color="#FFEBFF"/>
<stop offset="1" stop-color="white"/>
</linearGradient>
<clipPath id="clip0_4230_10805">
<rect x="0.333008" width="48" height="48" rx="12" fill="white"/>
</clipPath>
</defs>
</svg>
