<svg width="49" height="48" viewBox="0 0 49 48" fill="none" xmlns="http://www.w3.org/2000/svg">
<rect x="2.66699" y="2" width="44" height="44" rx="10" stroke="#E8F0FF" stroke-width="4"/>
<g clip-path="url(#clip0_4230_10764)">
<rect x="0.666992" width="48" height="48" rx="12" fill="#1B68FA"/>
<rect width="48" height="48" transform="translate(0.666992)" fill="url(#paint0_linear_4230_10764)"/>
</g>
<path d="M36.6663 16.9857V11.7478C36.6663 11.1194 36.1306 10.622 35.5027 10.67C34.9566 10.7117 34.4123 10.7884 33.8736 10.8997C32.143 11.2586 30.5232 11.9664 29.0597 13.004C27.5395 14.0818 26.2189 15.4969 25.1352 17.2098L25.096 17.2716L25.0595 17.3349C24.1563 18.896 23.5863 20.5888 23.3651 22.3666C23.152 24.0817 23.2718 25.8006 23.7213 27.4756C24.1712 29.1506 24.9285 30.699 25.9727 32.078C27.0549 33.5072 28.3964 34.6889 29.9606 35.5899C31.5249 36.4912 33.2211 37.0601 35.0028 37.2805C35.1479 37.2984 35.2931 37.314 35.4382 37.3274C36.0921 37.387 36.6562 36.8721 36.6573 36.2168L36.6666 31.008C36.6666 30.4767 36.2805 30.0203 35.7542 29.941C35.0342 29.8326 34.322 29.5907 33.6542 29.2061C32.2654 28.4056 31.2715 27.1137 30.8567 25.5676C30.4512 24.0579 30.6452 22.4823 31.401 21.1186C31.4144 21.0944 31.429 21.0702 31.4443 21.0471C32.6895 19.1317 34.2287 18.2638 35.7404 18.055C36.2727 17.9816 36.6666 17.5222 36.6666 16.9857H36.6663Z" fill="url(#paint1_linear_4230_10764)"/>
<path d="M26.0122 25.0768C25.8369 26.9294 25.2691 28.7778 24.3242 30.5708L24.2902 30.6356L24.2536 30.6985C23.3509 32.2596 22.1668 33.5987 20.7343 34.6784C19.3525 35.7205 17.8009 36.4762 16.1226 36.9249C15.3735 37.1252 14.6158 37.2599 13.8533 37.3288C13.2172 37.3861 12.667 36.8906 12.667 36.2529V31.002C12.667 30.4725 13.0509 30.0172 13.575 29.9357C15.2758 29.6714 16.8497 28.6848 17.8002 27.1085C17.8144 27.085 17.8278 27.0612 17.8401 27.0366C19.8494 23.1092 17.917 20.1874 15.6339 18.8713C15.0165 18.5154 14.3099 18.2407 13.5597 18.1022C13.0438 18.0069 12.667 17.562 12.667 17.0385V11.7779C12.667 11.1353 13.2255 10.6365 13.8656 10.7035C15.7536 10.9 17.6155 11.502 19.3275 12.4883C22.247 14.1707 24.4148 16.7902 25.4314 19.8646C25.9854 21.54 26.1808 23.2935 26.0122 25.0768Z" fill="url(#paint2_linear_4230_10764)"/>
<defs>
<linearGradient id="paint0_linear_4230_10764" x1="2.5" y1="48" x2="46.5" y2="2.98023e-07" gradientUnits="userSpaceOnUse">
<stop stop-color="#5E00F6"/>
<stop offset="1" stop-color="#771FBE"/>
</linearGradient>
<linearGradient id="paint1_linear_4230_10764" x1="24.3365" y1="35.6774" x2="54.6339" y2="-5.22586" gradientUnits="userSpaceOnUse">
<stop stop-color="#D0B3FD"/>
<stop offset="0.319825" stop-color="#E3D4FA"/>
<stop offset="1" stop-color="white"/>
</linearGradient>
<linearGradient id="paint2_linear_4230_10764" x1="7.56661" y1="36.4055" x2="37.7463" y2="-6.11698" gradientUnits="userSpaceOnUse">
<stop stop-color="#D0B3FD"/>
<stop offset="0.359827" stop-color="#E3D4FA"/>
<stop offset="1" stop-color="white"/>
</linearGradient>
<clipPath id="clip0_4230_10764">
<rect x="0.666992" width="48" height="48" rx="12" fill="white"/>
</clipPath>
</defs>
</svg>
