<svg width="18" height="25" viewBox="0 0 18 25" fill="none" xmlns="http://www.w3.org/2000/svg">
<path fill-rule="evenodd" clip-rule="evenodd" d="M0.50597 6.52794L16.6298 0.0581995C17.043 -0.107607 17.5124 0.092962 17.6782 0.506184C17.7165 0.601642 17.7362 0.703548 17.7362 0.806404V5.74098C17.7362 6.07032 17.5359 6.36654 17.2302 6.48919L1.10641 12.9589C0.693188 13.1247 0.223792 12.9242 0.0579853 12.5109C0.0196824 12.4155 0 12.3136 0 12.2107V7.27614C0 6.9468 0.20032 6.65058 0.50597 6.52794Z" fill="#6DA2FF"/>
<path fill-rule="evenodd" clip-rule="evenodd" d="M0.508543 14.98L14.375 9.47129C14.7888 9.3069 15.2575 9.50908 15.4219 9.92287C15.4595 10.0176 15.4788 10.1186 15.4788 10.2205V15.1561C15.4788 15.4871 15.2765 15.7845 14.9685 15.906L6.79101 19.1325C6.48307 19.254 6.28071 19.5514 6.28071 19.8824V24.1938C6.28071 24.6391 5.91976 25 5.47452 25C5.36618 25 5.25895 24.9782 5.15924 24.9358L0.49091 22.9522C0.193261 22.8257 0 22.5336 0 22.2102V15.7293C0 15.3989 0.201534 15.102 0.508543 14.98Z" fill="#2E72F6"/>
</svg>
